<svg viewBox="0 0 374 263" xmlns="http://www.w3.org/2000/svg"><g transform="translate(2 2)" fill="none" fill-rule="evenodd"><path d="M83.708 257.568c.17-19.21.943-31.506 2.324-36.89-4.634 14.283-8.056 19.215-17.053 19.215-9 0-18.527.497-21.147 0C36.275 237.7.375 224.855.375 158.91c0-65.943 7.566-78.734 11.158-86.633 3.59-7.9 24.363-47.934 57.446-49.694 33.08-1.76 38.788-.646 47.292 6.975 8.532-9.6 15.722-20.535 40.56-26.46 24.84-5.924 52.382-1.828 57.145 0 4.762 1.83 27.572 8.346 40.89 26.46 8.86-5.172 19.333-10.2 35.557-10.807 16.224-.605 57.28-2.48 73.477 75.737 16.2 78.216-20.873 135.8-31.225 136.61-10.352.81-39.09 1.62-42.25.81 0 6.82-.572 15.373-1.715 25.66H83.708z" fill="#D5C8B5"/><g stroke-width="3"><path d="M85.708 258.568c.17-19.21.943-31.506 2.324-36.89-4.634 14.283-8.056 19.215-17.053 19.215-9 0-18.527.497-21.147 0C38.275 238.7 2.375 225.855 2.375 159.91c0-65.943 7.566-78.734 11.158-86.633 3.59-7.9 24.363-47.934 57.446-49.694 33.08-1.76 38.788-.646 47.292 6.975 8.532-9.6 15.722-20.535 40.56-26.46 24.84-5.924 52.382-1.828 57.145 0 4.762 1.83 27.572 8.346 40.89 26.46 8.86-5.172 19.333-10.2 35.557-10.807 16.224-.605 57.28-2.48 73.477 75.737 16.2 78.216-20.873 135.8-31.225 136.61-10.352.81-39.09 1.62-42.25.81 0 6.82-.572 15.373-1.715 25.66H85.708z" stroke="#FFF"/><path d="M83.708 257.568c.17-19.21.943-31.506 2.324-36.89-4.634 14.283-8.056 19.215-17.053 19.215-9 0-18.527.497-21.147 0C36.275 237.7.375 224.855.375 158.91c0-65.943 7.566-78.734 11.158-86.633 3.59-7.9 24.363-47.934 57.446-49.694 33.08-1.76 38.788-.646 47.292 6.975 8.532-9.6 15.722-20.535 40.56-26.46 24.84-5.924 52.382-1.828 57.145 0 4.762 1.83 27.572 8.346 40.89 26.46 8.86-5.172 19.333-10.2 35.557-10.807 16.224-.605 57.28-2.48 73.477 75.737 16.2 78.216-20.873 135.8-31.225 136.61-10.352.81-39.09 1.62-42.25.81 0 6.82-.572 15.373-1.715 25.66H83.708z" stroke="#000"/></g><g stroke-width="3"><path d="M293 230.47c-1.04-5.49-3.996-14.22-8.867-26.194-7.308-17.96-30.794-59.566-12.375-116.695" stroke="#FFF"/><path d="M291 230.47c-1.04-5.49-3.996-14.22-8.867-26.194-7.308-17.96-30.794-59.566-12.375-116.695" stroke="#000"/></g><g stroke-width="3"><path d="M85.872 255.84c-1.277-23.31 2.05-43.394 9.977-60.253 11.89-25.29 21.564-33.337 8.344-100.306" stroke="#FFF"/><path d="M83.872 255.84c-1.277-23.31 2.05-43.394 9.977-60.253 11.89-25.29 21.564-33.337 8.344-100.306" stroke="#000"/></g><circle fill="#000" fill-rule="nonzero" cx="160.967" cy="136.525" r="6.393"/><circle fill="#000" fill-rule="nonzero" cx="205.721" cy="136.525" r="6.393"/><circle fill="#000" fill-rule="nonzero" cx="135.393" cy="236.689" r="4.262"/><circle fill="#000" fill-rule="nonzero" cx="241.951" cy="230.295" r="4.262"/><circle fill="#000" fill-rule="nonzero" cx="265.393" cy="228.164" r="4.262"/><circle fill="#000" fill-rule="nonzero" cx="252.607" cy="243.082" r="4.262"/><circle fill="#000" fill-rule="nonzero" cx="111.951" cy="236.689" r="4.262"/><circle fill="#000" fill-rule="nonzero" cx="124.738" cy="247.344" r="4.262"/><path d="M185.428 230.94c-9.453-.348-24.793-2.295-28.105-11.774-3.313-9.48-2.83-25.076-.513-30.094 2.317-5.018 12.925-22.81 28.732-21.882 15.807.928 26.243 14.318 28.51 20.38 2.267 6.062 3.163 25.11-.537 32.294-3.03 5.884-10.825 11.716-28.087 11.077z" stroke="#000" stroke-width="3" fill="#FCE0DF" fill-rule="nonzero"/><path d="M183.597 258.843V232.38" stroke="#000" stroke-width="3"/></g></svg>

