<?xml version="1.0" standalone="no"?>
<!DOCTYPE svg PUBLIC "-//W3C//DTD SVG 20010904//EN"
 "http://www.w3.org/TR/2001/REC-SVG-20010904/DTD/svg10.dtd">
<svg version="1.0" xmlns="http://www.w3.org/2000/svg"
 width="748.000000pt" height="748.000000pt" viewBox="0 0 748.000000 748.000000"
 preserveAspectRatio="xMidYMid meet">
<metadata>
Created by potrace 1.11, written by Peter Selinger 2001-2013
</metadata>
<g transform="translate(0.000000,748.000000) scale(0.100000,-0.100000)"
fill="#000000" stroke="none">
<path d="M3717 6364 c-3 -3 -50 -7 -104 -9 -124 -5 -235 -16 -303 -31 -14 -3
-36 -7 -50 -9 -14 -2 -47 -9 -75 -15 -27 -6 -57 -13 -65 -15 -109 -24 -323
-116 -430 -187 -60 -39 -265 -234 -302 -286 l-16 -23 -51 30 c-164 97 -293
114 -731 97 -250 -10 -279 -14 -390 -48 -231 -70 -496 -274 -680 -523 -25 -33
-47 -62 -50 -65 -13 -11 -119 -180 -140 -221 -13 -24 -25 -46 -29 -49 -9 -8
-68 -131 -106 -225 -55 -134 -90 -282 -120 -510 -3 -16 -7 -50 -10 -75 -8 -55
-14 -133 -30 -350 -15 -212 -21 -729 -10 -900 9 -151 11 -165 39 -330 21 -125
20 -120 76 -290 93 -280 272 -528 484 -670 82 -55 245 -136 289 -144 14 -2 35
-9 46 -15 39 -21 200 -27 481 -18 112 4 154 16 206 60 18 15 33 27 35 27 2 0
4 -94 4 -210 -1 -185 1 -210 15 -210 9 0 21 -5 26 -10 12 -12 4140 -17 4152
-6 3 4 7 17 8 29 0 12 4 51 8 87 9 84 17 184 21 285 2 44 4 85 4 90 1 7 71 11
194 12 198 1 437 9 566 18 72 5 131 22 131 37 0 5 5 8 10 8 29 0 181 191 251
316 98 174 232 500 264 640 2 10 13 55 24 99 48 194 83 400 98 591 14 169 6
630 -12 723 -2 10 -6 42 -10 72 -3 30 -8 61 -10 69 -2 8 -7 38 -10 65 -3 28
-10 66 -15 85 -5 19 -11 49 -13 65 -3 17 -10 53 -17 80 -6 28 -13 58 -15 68
-2 10 -7 27 -10 37 -3 10 -8 28 -10 40 -2 11 -9 35 -14 53 -46 144 -55 173
-57 182 -5 24 -64 175 -90 230 -15 33 -28 62 -29 65 -7 32 -116 213 -180 300
-72 98 -191 221 -260 268 -22 15 -42 29 -45 32 -21 22 -213 119 -280 142 -131
45 -251 63 -435 62 -293 -1 -488 -45 -715 -161 l-66 -33 -79 77 c-133 130
-219 190 -415 288 -292 146 -460 188 -802 199 -70 2 -131 7 -136 10 -5 3 -12
3 -15 0z"/>
</g>
</svg>
